<svg xmlns="http://www.w3.org/2000/svg"  viewBox="0 0 72 72" width="64px" height="64px"><path d="M 27 13 C 22.029 13 18 17.029 18 22 C 13.029 22 9 26.029 9 31 L 9 49 C 9 53.971 13.029 58 18 58 L 44 58 C 48.971 58 53 53.971 53 49 C 57.971 49 62 44.971 62 40 L 62 22 C 62 17.029 57.971 13 53 13 L 27 13 z M 27 19 L 53 19 C 54.657 19 56 20.343 56 22 L 56 40 C 56 41.657 54.657 43 53 43 L 53 31 C 53 26.029 48.971 22 44 22 L 24 22 C 24 20.343 25.343 19 27 19 z M 18 28 L 44 28 C 45.657 28 47 29.343 47 31 L 47 40.041016 L 43.853516 37.212891 C 42.143516 35.674891 39.548797 35.67675 37.841797 37.21875 L 27.009766 47.005859 L 21.263672 42.089844 C 19.515672 40.594844 16.936359 40.597609 15.193359 42.099609 L 15 42.265625 L 15 31 C 15 29.343 16.343 28 18 28 z M 26.517578 32.1875 C 25.170578 32.1875 24.078125 33.280953 24.078125 34.626953 C 24.078125 35.973953 25.171578 37.064453 26.517578 37.064453 C 27.864578 37.064453 28.955078 35.972953 28.955078 34.626953 C 28.955078 33.280953 27.863578 32.1885 26.517578 32.1875 z"/></svg>